<svg id="Layer_1" data-name="Layer 1" xmlns="http://www.w3.org/2000/svg" viewBox="0 0 119.68 109.77"><title>teal-process</title><polygon points="32.5 0.42 32.5 60.81 85.3 30.61 32.5 0.42"/><path d="M13.69,87h9a10.57,10.57,0,0,1,3.54.55,7.5,7.5,0,0,1,2.64,1.56,6.81,6.81,0,0,1,1.67,2.4,8,8,0,0,1,.58,3.1v0.06A7.71,7.71,0,0,1,30.41,98a6.86,6.86,0,0,1-1.9,2.42,8.24,8.24,0,0,1-2.83,1.46,12,12,0,0,1-3.47.49H18.53V109H13.69V87Zm8.67,11.1a3.94,3.94,0,0,0,2.83-1,3.15,3.15,0,0,0,1-2.37V94.68a3,3,0,0,0-1.05-2.48,4.46,4.46,0,0,0-2.88-.85H18.53v6.73h3.83Z"/><path d="M37.83,87h4.84v17.63h11V109H37.83V87Z"/><path d="M68,86.82h4.46L81.86,109H76.8l-2-4.94h-9.3l-2,4.94H58.54Zm5.09,13-2.92-7.14-2.92,7.14h5.85Z"/><path d="M94.6,100.31L86.14,87H91.8L97,95.81,102.39,87h5.5l-8.46,13.23V109H94.6v-8.68Z"/></svg>