<?xml version="1.0" encoding="UTF-8"?>
<svg width="100px" height="92px" viewBox="0 0 100 92" version="1.1" xmlns="http://www.w3.org/2000/svg" xmlns:xlink="http://www.w3.org/1999/xlink">
    <!-- Generator: Sketch 51.2 (57519) - http://www.bohemiancoding.com/sketch -->
    <title>Combined Shape Copy 18</title>
    <desc>Created with Sketch.</desc>
    <defs></defs>
    <g id="Page-1" stroke="none" stroke-width="1" fill="none" fill-rule="evenodd">
        <path d="M44.5912086,-3.54341623 L44.5912086,19.806274 L32.6993805,19.806274 L32.6993805,-3.54341623 L44.5912086,-3.54341623 Z M51.9647949,-3.54341623 L95.2421575,-3.54341623 L95.2421575,19.806274 L51.9647949,19.806274 L51.9647949,-3.54341623 Z M44.5912086,34.5534468 L44.5912086,57.903137 L32.6993805,57.903137 L32.6993805,34.5534468 L44.5912086,34.5534468 Z M51.9647949,34.5534468 L95.2421575,34.5534468 L95.2421575,57.903137 L51.9647949,57.903137 L51.9647949,34.5534468 Z M44.5912086,72.6503098 L44.5912086,96 L32.6993805,96 L32.6993805,72.6503098 L44.5912086,72.6503098 Z M51.9647949,72.6503098 L95.2421575,72.6503098 L95.2421575,96 L51.9647949,96 L51.9647949,72.6503098 Z M25.3257941,-3.54341623 L25.3257941,19.806274 L4.30125873,19.806274 L4.30125873,-3.54341623 L25.3257941,-3.54341623 Z M25.3257941,34.5534468 L25.3257941,57.903137 L4.30125873,57.903137 L4.30125873,34.5534468 L25.3257941,34.5534468 Z M25.3257941,72.6503098 L25.3257941,96 L4.30125873,96 L4.30125873,72.6503098 L25.3257941,72.6503098 Z" id="Combined-Shape-Copy-18" fill="#171717" transform="translate(49.771708, 46.228292) rotate(-270.000000) translate(-49.771708, -46.228292) "></path>
    </g>
</svg>