<?xml version="1.0" encoding="UTF-8"?>
<svg width="107px" height="73px" viewBox="0 0 107 73" version="1.1" xmlns="http://www.w3.org/2000/svg" xmlns:xlink="http://www.w3.org/1999/xlink">
    <!-- Generator: Sketch 51.2 (57519) - http://www.bohemiancoding.com/sketch -->
    <title>teal_logo copy 3</title>
    <desc>Created with Sketch.</desc>
    <defs></defs>
    <g id="Page-1" stroke="none" stroke-width="1" fill="none" fill-rule="evenodd">
        <g id="teal_logo-copy-3" fill="#000000" fill-rule="nonzero">
            <path d="M104.030038,13.2801339 C102.036502,9.32868304 99.3106464,6.23270089 95.8117871,4.03292411 C91.5806084,1.34430804 85.3965779,0 77.3003802,0 L65.7053232,0 L58.6669202,0 L1.5460076,0 L0,12.6690848 L21.9695817,12.6690848 L15.9889734,61.1049107 L29.618251,61.1049107 L35.5581749,12.7098214 L57.1209125,12.7098214 L51.1403042,61.1456473 L29.5775665,61.1456473 L28.1129278,73 L49.6756654,73 L62.7353612,73 L63.304943,73 L65.5425856,54.75 L75.591635,54.75 C87.3901141,54.75 96.0152091,51.0429687 101.46692,43.6289062 C105.169202,38.6183036 107,32.8337054 107,26.234375 C107,21.671875 106.023574,17.3945312 104.030038,13.2801339 Z M88.773384,38.3331473 C85.7627376,41.2254464 81.4908745,42.6512277 75.8764259,42.6512277 L67.0072243,42.6512277 L70.7095057,12.7098214 L76.486692,12.7098214 C87.6749049,12.7098214 93.2486692,17.109375 93.2486692,25.8677455 C93.2486692,31.2857143 91.743346,35.4408482 88.773384,38.3331473 Z" id="Shape"></path>
        </g>
    </g>
</svg>