<svg id="Layer_1" data-name="Layer 1" xmlns="http://www.w3.org/2000/svg" viewBox="0 0 119.68 109.77"><title>teal-process</title><path d="M0.36,86.56h9a10.57,10.57,0,0,1,3.54.55,7.5,7.5,0,0,1,2.64,1.56,6.81,6.81,0,0,1,1.67,2.4,8,8,0,0,1,.58,3.1v0.06a7.71,7.71,0,0,1-.69,3.36,6.86,6.86,0,0,1-1.9,2.42,8.24,8.24,0,0,1-2.83,1.46,12,12,0,0,1-3.47.49H5.2v6.6H0.36v-22ZM9,97.66a3.94,3.94,0,0,0,2.83-1,3.15,3.15,0,0,0,1-2.37V94.27a3,3,0,0,0-1.05-2.48,4.46,4.46,0,0,0-2.88-.85H5.2v6.73H9Z"/><path d="M32,86.41h4.46l9.43,22.16H40.88l-2-4.94h-9.3l-2,4.94H22.62Zm5.09,13-2.92-7.14-2.92,7.14h5.85Z"/><path d="M61.66,108.91a9.64,9.64,0,0,1-7-2.45q-2.55-2.45-2.55-7.32V86.56H57V99a5.82,5.82,0,0,0,1.26,4.07,4.5,4.5,0,0,0,3.49,1.37,4.59,4.59,0,0,0,3.49-1.32,5.55,5.55,0,0,0,1.26-4V86.56h4.84V99a12.77,12.77,0,0,1-.68,4.37,8.25,8.25,0,0,1-1.93,3.1,7.91,7.91,0,0,1-3,1.85A12.28,12.28,0,0,1,61.66,108.91Z"/><path d="M87.24,108.88a14.57,14.57,0,0,1-4.93-.86,13.06,13.06,0,0,1-4.4-2.66l2.86-3.43a14.35,14.35,0,0,0,3.1,1.95,8.28,8.28,0,0,0,3.47.72,4.23,4.23,0,0,0,2.34-.55,1.73,1.73,0,0,0,.83-1.52v-0.06a1.9,1.9,0,0,0-.17-0.83,1.75,1.75,0,0,0-.66-0.68,7,7,0,0,0-1.35-.63q-0.87-.31-2.25-0.66a27.35,27.35,0,0,1-3-.91,8.53,8.53,0,0,1-2.3-1.24,5,5,0,0,1-1.46-1.84,6.38,6.38,0,0,1-.52-2.73V92.88a6.39,6.39,0,0,1,.56-2.72,6.19,6.19,0,0,1,1.58-2.09,7.09,7.09,0,0,1,2.42-1.35,9.73,9.73,0,0,1,3.11-.47,13.16,13.16,0,0,1,4.45.72A12.9,12.9,0,0,1,94.6,89l-2.51,3.65a16,16,0,0,0-2.89-1.59,7.4,7.4,0,0,0-2.83-.58,3.42,3.42,0,0,0-2.12.55,1.67,1.67,0,0,0-.71,1.37v0.06a2,2,0,0,0,.21.93,1.85,1.85,0,0,0,.74.71,6.94,6.94,0,0,0,1.46.6q0.93,0.28,2.35.66a22.66,22.66,0,0,1,3,1,8.33,8.33,0,0,1,2.21,1.32,5,5,0,0,1,1.35,1.81,6.13,6.13,0,0,1,.46,2.48v0.06A6.81,6.81,0,0,1,94.7,105,6,6,0,0,1,93,107.11a7.45,7.45,0,0,1-2.53,1.32A11,11,0,0,1,87.24,108.88Z"/><path d="M102.64,86.56h16.56v4.31H107.42v4.46H117.8v4.31H107.42v4.62h11.94v4.31H102.64v-22Z"/><rect x="35.85" width="14.92" height="60.39"/><rect x="69.72" width="14.92" height="60.39"/></svg>